<?xml version="1.0" standalone="no"?>
<!DOCTYPE svg PUBLIC "-//W3C//DTD SVG 20010904//EN"
 "http://www.w3.org/TR/2001/REC-SVG-20010904/DTD/svg10.dtd">
<svg version="1.0" xmlns="http://www.w3.org/2000/svg"
 width="1000.000000pt" height="1000.000000pt" viewBox="0 0 1000.000000 1000.000000"
 preserveAspectRatio="xMidYMid meet">
<metadata>
Created by potrace 1.14, written by Peter Selinger 2001-2017
</metadata>
<g transform="translate(0.000000,1000.000000) scale(0.100000,-0.100000)"
fill="#000000" stroke="none">
<path d="M677 9990 c-116 -20 -300 -95 -333 -136 -6 -8 -15 -14 -20 -14 -19 0
-145 -134 -189 -199 -24 -37 -58 -101 -74 -142 -64 -161 -59 206 -60 -4504 l0
-4290 23 -90 c47 -182 126 -306 281 -443 46 -40 171 -106 258 -136 l92 -31
4315 -2 c2949 -2 4331 1 4365 8 138 29 269 88 359 162 57 46 143 137 146 152
1 6 8 14 16 18 8 4 14 12 14 17 0 5 13 30 30 56 32 51 73 169 89 254 7 36 9
1514 8 4360 l-2 4305 -22 72 c-91 293 -280 479 -578 569 -58 18 -226 19 -4365
20 -2368 1 -4327 -2 -4353 -6z"/>
</g>
</svg>
